<svg width="512" height="512" viewBox="0 0 512 512" fill="none" xmlns="http://www.w3.org/2000/svg">
  <rect width="512" height="512" rx="100" fill="#0B1623"/>
  <g clip-path="url(#clip0_1390_292)">
  <path d="M224 66C249.65 66 274.54 71.02 297.95 80.93C320.57 90.5 340.89 104.2 358.35 121.65C375.8 139.1 389.5 159.42 399.07 182.05C408.97 205.47 414 230.35 414 256C414 281.65 408.98 306.54 399.07 329.95C389.5 352.57 375.8 372.89 358.35 390.35C340.9 407.8 320.58 421.5 297.95 431.07C274.53 440.97 249.65 446 224 446C198.35 446 173.46 440.98 150.05 431.07C127.43 421.5 107.11 407.8 89.65 390.35C72.2 372.9 58.5 352.58 48.93 329.95C39.03 306.53 34 281.65 34 256C34 230.35 39.02 205.46 48.93 182.05C58.5 159.43 72.2 139.11 89.65 121.65C107.1 104.2 127.42 90.5 150.05 80.93C173.47 71.03 198.35 66 224 66ZM224 56C113.54 56 24 145.54 24 256C24 366.46 113.54 456 224 456C334.46 456 424 366.46 424 256C424 145.54 334.46 56 224 56Z" fill="url(#paint0_linear_1390_292)"/>
  <path d="M238.28 80.11C285.45 80.11 329.81 98.48 363.16 131.84C396.52 165.2 414.89 209.55 414.89 256.72C414.89 303.89 396.52 348.25 363.16 381.6C329.8 414.96 285.45 433.33 238.28 433.33C191.11 433.33 146.75 414.96 113.4 381.6C80.04 348.24 61.67 303.89 61.67 256.72C61.67 209.55 80.04 165.19 113.4 131.84C146.76 98.48 191.11 80.11 238.28 80.11ZM238.28 71C135.71 71 52.56 154.15 52.56 256.72C52.56 359.29 135.71 442.44 238.28 442.44C340.85 442.44 424 359.29 424 256.72C424 154.15 340.85 71 238.28 71Z" fill="url(#paint1_linear_1390_292)"/>
  <path d="M252.56 94.22C296.16 94.22 337.15 111.2 367.98 142.03C398.81 172.86 415.79 213.85 415.79 257.45C415.79 301.05 398.81 342.04 367.98 372.87C337.15 403.7 296.16 420.68 252.56 420.68C208.96 420.68 167.97 403.7 137.14 372.87C106.31 342.04 89.33 301.05 89.33 257.45C89.33 213.85 106.31 172.86 137.14 142.03C167.97 111.2 208.96 94.22 252.56 94.22ZM252.56 86C157.87 86 81.12 162.76 81.12 257.44C81.12 352.12 157.88 428.88 252.56 428.88C347.24 428.88 424 352.12 424 257.44C424 162.76 347.24 86 252.56 86Z" fill="url(#paint2_linear_1390_292)"/>
  <path d="M266.83 108.33C306.85 108.33 344.48 123.92 372.78 152.22C401.08 180.52 416.67 218.15 416.67 258.17C416.67 298.19 401.08 335.82 372.78 364.12C344.48 392.42 306.85 408.01 266.83 408.01C226.81 408.01 189.18 392.42 160.88 364.12C132.58 335.82 116.99 298.19 116.99 258.17C116.99 218.15 132.58 180.52 160.88 152.22C189.18 123.92 226.81 108.33 266.83 108.33ZM266.83 101C180.03 101 109.66 171.37 109.66 258.17C109.66 344.97 180.03 415.34 266.83 415.34C353.63 415.34 424 344.97 424 258.17C424 171.37 353.63 101 266.83 101Z" fill="url(#paint3_linear_1390_292)"/>
  <path d="M281.11 122.44C317.56 122.44 351.82 136.63 377.59 162.4C403.36 188.17 417.55 222.44 417.55 258.88C417.55 295.32 403.36 329.59 377.59 355.36C351.82 381.13 317.55 395.32 281.11 395.32C244.67 395.32 210.4 381.13 184.63 355.36C158.86 329.59 144.67 295.32 144.67 258.88C144.67 222.44 158.86 188.17 184.63 162.4C210.4 136.63 244.67 122.44 281.11 122.44ZM281.11 116C202.19 116 138.22 179.97 138.22 258.89C138.22 337.81 202.19 401.78 281.11 401.78C360.03 401.78 424 337.81 424 258.89C424 179.97 360.03 116 281.11 116Z" fill="url(#paint4_linear_1390_292)"/>
  <path d="M295.39 136.56C328.26 136.56 359.16 149.36 382.4 172.6C405.64 195.84 418.44 226.74 418.44 259.61C418.44 292.48 405.64 323.38 382.4 346.62C359.16 369.86 328.26 382.66 295.39 382.66C262.52 382.66 231.62 369.86 208.38 346.62C185.14 323.38 172.34 292.48 172.34 259.61C172.34 226.74 185.14 195.84 208.38 172.6C231.62 149.36 262.52 136.56 295.39 136.56ZM295.39 131C224.36 131 166.78 188.58 166.78 259.61C166.78 330.64 224.36 388.22 295.39 388.22C366.42 388.22 424 330.64 424 259.61C424 188.58 366.42 131 295.39 131Z" fill="url(#paint5_linear_1390_292)"/>
  <path d="M309.67 150.67C338.96 150.67 366.5 162.08 387.22 182.79C407.93 203.5 419.34 231.04 419.34 260.34C419.34 289.64 407.93 317.17 387.22 337.89C366.51 358.61 338.97 370.01 309.67 370.01C280.37 370.01 252.84 358.6 232.12 337.89C211.4 317.18 200 289.64 200 260.34C200 231.04 211.41 203.51 232.12 182.79C252.83 162.08 280.37 150.67 309.67 150.67ZM309.67 146C246.53 146 195.34 197.19 195.34 260.33C195.34 323.47 246.53 374.66 309.67 374.66C372.81 374.66 424 323.47 424 260.33C424 197.19 372.81 146 309.67 146Z" fill="url(#paint6_linear_1390_292)"/>
  <path d="M323.94 164.78C377.03 164.78 420.22 207.97 420.22 261.06C420.22 314.15 377.03 357.34 323.94 357.34C270.85 357.34 227.66 314.15 227.66 261.06C227.66 207.97 270.85 164.78 323.94 164.78ZM323.94 161C268.68 161 223.88 205.8 223.88 261.06C223.88 316.32 268.68 361.12 323.94 361.12C379.2 361.12 424 316.32 424 261.06C424 205.8 379.2 161 323.94 161Z" fill="url(#paint7_linear_1390_292)"/>
  <path d="M338.22 178.89C383.93 178.89 421.11 216.07 421.11 261.78C421.11 307.49 383.93 344.67 338.22 344.67C292.51 344.67 255.33 307.49 255.33 261.78C255.33 216.07 292.51 178.89 338.22 178.89ZM338.22 176C290.85 176 252.44 214.4 252.44 261.78C252.44 309.16 290.84 347.56 338.22 347.56C385.6 347.56 424 309.16 424 261.78C424 214.4 385.6 176 338.22 176Z" fill="url(#paint8_linear_1390_292)"/>
  <path d="M352.5 193C390.82 193 422 224.18 422 262.5C422 300.82 390.82 332 352.5 332C314.18 332 283 300.82 283 262.5C283 224.18 314.18 193 352.5 193ZM352.5 191C313.01 191 281 223.01 281 262.5C281 301.99 313.01 334 352.5 334C391.99 334 424 301.99 424 262.5C424 223.01 391.99 191 352.5 191Z" fill="#0B1623"/>
  </g>
  <path d="M261.403 291L246.619 264.888H240.283V291H226.843V223.992H251.995C257.179 223.992 261.595 224.92 265.243 226.776C268.891 228.568 271.611 231.032 273.403 234.168C275.259 237.24 276.187 240.696 276.187 244.536C276.187 248.952 274.907 252.952 272.347 256.536C269.787 260.056 265.979 262.488 260.923 263.832L276.955 291H261.403ZM240.283 254.808H251.515C255.163 254.808 257.883 253.944 259.675 252.216C261.467 250.424 262.363 247.96 262.363 244.824C262.363 241.752 261.467 239.384 259.675 237.72C257.883 235.992 255.163 235.128 251.515 235.128H240.283V254.808ZM282.887 264.216C282.887 258.84 283.943 254.072 286.055 249.912C288.231 245.752 291.143 242.552 294.791 240.312C298.503 238.072 302.631 236.952 307.175 236.952C311.143 236.952 314.599 237.752 317.543 239.352C320.551 240.952 322.951 242.968 324.743 245.4V237.816H338.279V291H324.743V283.224C323.015 285.72 320.615 287.8 317.543 289.464C314.535 291.064 311.047 291.864 307.079 291.864C302.599 291.864 298.503 290.712 294.791 288.408C291.143 286.104 288.231 282.872 286.055 278.712C283.943 274.488 282.887 269.656 282.887 264.216ZM324.743 264.408C324.743 261.144 324.103 258.36 322.823 256.056C321.543 253.688 319.815 251.896 317.639 250.68C315.463 249.4 313.127 248.76 310.631 248.76C308.135 248.76 305.831 249.368 303.719 250.584C301.607 251.8 299.879 253.592 298.535 255.96C297.255 258.264 296.615 261.016 296.615 264.216C296.615 267.416 297.255 270.232 298.535 272.664C299.879 275.032 301.607 276.856 303.719 278.136C305.895 279.416 308.199 280.056 310.631 280.056C313.127 280.056 315.463 279.448 317.639 278.232C319.815 276.952 321.543 275.16 322.823 272.856C324.103 270.488 324.743 267.672 324.743 264.408ZM345.949 264.216C345.949 258.84 347.005 254.072 349.117 249.912C351.293 245.752 354.237 242.552 357.949 240.312C361.661 238.072 365.789 236.952 370.333 236.952C373.789 236.952 377.085 237.72 380.221 239.256C383.357 240.728 385.853 242.712 387.709 245.208V219.96H401.341V291H387.709V283.128C386.045 285.752 383.709 287.864 380.701 289.464C377.693 291.064 374.205 291.864 370.237 291.864C365.757 291.864 361.661 290.712 357.949 288.408C354.237 286.104 351.293 282.872 349.117 278.712C347.005 274.488 345.949 269.656 345.949 264.216ZM387.805 264.408C387.805 261.144 387.165 258.36 385.885 256.056C384.605 253.688 382.877 251.896 380.701 250.68C378.525 249.4 376.189 248.76 373.693 248.76C371.197 248.76 368.893 249.368 366.781 250.584C364.669 251.8 362.941 253.592 361.597 255.96C360.317 258.264 359.677 261.016 359.677 264.216C359.677 267.416 360.317 270.232 361.597 272.664C362.941 275.032 364.669 276.856 366.781 278.136C368.957 279.416 371.261 280.056 373.693 280.056C376.189 280.056 378.525 279.448 380.701 278.232C382.877 276.952 384.605 275.16 385.885 272.856C387.165 270.488 387.805 267.672 387.805 264.408ZM419.284 231.48C416.916 231.48 414.932 230.744 413.332 229.272C411.796 227.736 411.028 225.848 411.028 223.608C411.028 221.368 411.796 219.512 413.332 218.04C414.932 216.504 416.916 215.736 419.284 215.736C421.652 215.736 423.604 216.504 425.14 218.04C426.74 219.512 427.54 221.368 427.54 223.608C427.54 225.848 426.74 227.736 425.14 229.272C423.604 230.744 421.652 231.48 419.284 231.48ZM425.908 237.816V291H412.468V237.816H425.908ZM460.803 291.864C455.683 291.864 451.075 290.744 446.979 288.504C442.883 286.2 439.651 282.968 437.283 278.808C434.979 274.648 433.827 269.848 433.827 264.408C433.827 258.968 435.011 254.168 437.379 250.008C439.811 245.848 443.107 242.648 447.267 240.408C451.427 238.104 456.067 236.952 461.187 236.952C466.307 236.952 470.947 238.104 475.107 240.408C479.267 242.648 482.531 245.848 484.899 250.008C487.331 254.168 488.547 258.968 488.547 264.408C488.547 269.848 487.299 274.648 484.802 278.808C482.371 282.968 479.043 286.2 474.819 288.504C470.659 290.744 465.987 291.864 460.803 291.864ZM460.803 280.152C463.235 280.152 465.507 279.576 467.619 278.424C469.795 277.208 471.523 275.416 472.803 273.048C474.083 270.68 474.723 267.8 474.723 264.408C474.723 259.352 473.379 255.48 470.691 252.792C468.067 250.04 464.835 248.664 460.995 248.664C457.155 248.664 453.923 250.04 451.299 252.792C448.739 255.48 447.459 259.352 447.459 264.408C447.459 269.464 448.707 273.368 451.203 276.12C453.763 278.808 456.963 280.152 460.803 280.152Z" fill="#2D8AE0"/>
  <defs>
  <linearGradient id="paint0_linear_1390_292" x1="24" y1="256" x2="424" y2="256" gradientUnits="userSpaceOnUse">
  <stop stop-color="#2D8AE0"/>
  <stop offset="1" stop-color="#0B1623"/>
  </linearGradient>
  <linearGradient id="paint1_linear_1390_292" x1="52.56" y1="256.72" x2="424" y2="256.72" gradientUnits="userSpaceOnUse">
  <stop stop-color="#297DCB"/>
  <stop offset="1" stop-color="#0B1623"/>
  </linearGradient>
  <linearGradient id="paint2_linear_1390_292" x1="81.11" y1="257.44" x2="424" y2="257.44" gradientUnits="userSpaceOnUse">
  <stop stop-color="#2570B6"/>
  <stop offset="1" stop-color="#0B1623"/>
  </linearGradient>
  <linearGradient id="paint3_linear_1390_292" x1="109.67" y1="258.17" x2="424" y2="258.17" gradientUnits="userSpaceOnUse">
  <stop stop-color="#2263A1"/>
  <stop offset="1" stop-color="#0B1623"/>
  </linearGradient>
  <linearGradient id="paint4_linear_1390_292" x1="138.22" y1="258.89" x2="424" y2="258.89" gradientUnits="userSpaceOnUse">
  <stop stop-color="#1E568C"/>
  <stop offset="1" stop-color="#0B1623"/>
  </linearGradient>
  <linearGradient id="paint5_linear_1390_292" x1="166.78" y1="259.61" x2="424" y2="259.61" gradientUnits="userSpaceOnUse">
  <stop stop-color="#1A4A77"/>
  <stop offset="1" stop-color="#0B1623"/>
  </linearGradient>
  <linearGradient id="paint6_linear_1390_292" x1="195.33" y1="260.33" x2="424" y2="260.33" gradientUnits="userSpaceOnUse">
  <stop stop-color="#163D62"/>
  <stop offset="1" stop-color="#0B1623"/>
  </linearGradient>
  <linearGradient id="paint7_linear_1390_292" x1="223.89" y1="261.06" x2="424" y2="261.06" gradientUnits="userSpaceOnUse">
  <stop stop-color="#13304D"/>
  <stop offset="1" stop-color="#0B1623"/>
  </linearGradient>
  <linearGradient id="paint8_linear_1390_292" x1="252.44" y1="261.78" x2="424" y2="261.78" gradientUnits="userSpaceOnUse">
  <stop stop-color="#0F2338"/>
  <stop offset="1" stop-color="#0B1623"/>
  </linearGradient>
  <clipPath id="clip0_1390_292">
  <rect width="400" height="400" fill="white" transform="translate(24 56)"/>
  </clipPath>
  </defs>
  </svg>
  